<svg width="40" height="40" viewBox="0 0 40 40" fill="none" xmlns="http://www.w3.org/2000/svg">
<circle cx="20" cy="20" r="20" fill="#1877F2"/>
<path d="M33.122 27.864C33.122 33.568 30.378 37.864 24.722 37.864C21.634 37.864 19.49 36.32 18.632 34.346V37.434H12.8V6.76L18.976 6.2V19.84C19.876 18.04 21.85 16.58 24.724 16.58C30.386 16.58 33.124 20.87 33.124 26.58L33.122 27.864ZM26.946 26.448C26.946 23.574 25.832 21.43 22.872 21.43C20.34 21.43 18.968 23.23 18.968 26.148V28.292C18.968 31.208 20.34 33.01 22.872 33.01C25.832 33.01 26.946 30.866 26.946 27.992V26.448Z" fill="white"/>
</svg>
