<svg width="200" height="200" viewBox="0 0 200 200" fill="none" xmlns="http://www.w3.org/2000/svg">
<circle cx="100" cy="100" r="100" fill="#1877F2"/>
<path d="M165.61 139.32C165.61 167.84 151.89 189.32 123.61 189.32C108.17 189.32 97.45 181.6 93.16 171.73V187.17H64V33.8L94.88 31V99.2C99.38 90.2 109.25 82.9 123.62 82.9C151.93 82.9 165.62 104.35 165.62 132.9L165.61 139.32ZM134.73 132.24C134.73 117.87 129.16 107.15 114.36 107.15C101.7 107.15 94.84 116.15 94.84 130.74V141.46C94.84 156.04 101.7 165.05 114.36 165.05C129.16 165.05 134.73 154.33 134.73 139.96V132.24Z" fill="white"/>
</svg>
