<svg width="512" height="100" viewBox="0 0 512 100" fill="none" xmlns="http://www.w3.org/2000/svg">
<path d="M67.2271 64.3C67.2271 46.475 75.3457 33.05 92.3583 33.05C101.637 33.05 107.304 38.0125 110.014 44.175V34.4125H127.796V98.2125H110.014V88.5625C107.436 94.7313 101.637 99.5563 92.3583 99.5563C75.3457 99.5563 67.2271 86.15 67.2271 68.3062V64.3ZM85.7841 68.5938C85.7841 78.1063 89.1313 84.4063 97.7668 84.4063C105.375 84.4063 109.239 78.6438 109.239 69.5313V63.125C109.239 54.0125 105.375 48.25 97.7668 48.25C89.1313 48.25 85.7841 54.55 85.7841 64.0625V68.5938Z" fill="#1877F2"/>
<path d="M186.688 68.75V63.125C186.688 45.0312 196.609 33.125 216.849 33.125C235.923 33.125 244.3 45.1875 244.3 62.8813V73.0688H205.239C205.629 81.7813 209.367 85.6688 219.661 85.6688C226.626 85.6688 233.97 84.1938 239.384 81.7813L242.779 95C237.882 97.6875 227.828 99.6938 218.94 99.6938C195.449 99.6875 186.688 87.5 186.688 68.75ZM205.245 60.4375H227.672V58.8313C227.672 51.8625 224.967 46.3313 216.855 46.3313C208.472 46.3375 205.245 51.8375 205.245 60.4125V60.4375Z" fill="#1877F2"/>
<path d="M313.089 68.325C313.089 86.15 304.844 99.575 287.85 99.575C278.571 99.575 272.129 94.75 269.551 88.5812V98.2313H252.028V2.375L270.585 0.625V43.25C273.289 37.625 279.22 33.0625 287.856 33.0625C304.868 33.0625 313.095 46.4687 313.095 64.3125L313.089 68.325ZM294.532 63.9C294.532 54.9188 291.185 48.2187 282.291 48.2187C274.683 48.2187 270.561 53.8438 270.561 62.9625V69.6625C270.561 78.775 274.683 84.4063 282.291 84.4063C291.185 84.4063 294.532 77.7063 294.532 68.725V63.9Z" fill="#1877F2"/>
<path d="M61.0614 67.7C61.0614 85.525 52.8165 98.95 35.822 98.95C26.5435 98.95 20.1014 94.125 17.5234 87.9562V97.6063H0V1.75L18.557 0V42.625C21.2612 37 27.1925 32.4375 35.828 32.4375C52.8406 32.4375 61.0674 45.8437 61.0674 63.6875L61.0614 67.7ZM42.5044 63.275C42.5044 54.2938 39.1572 47.5937 30.2633 47.5937C22.6554 47.5937 18.5329 53.2188 18.5329 62.3375V69.0375C18.5329 78.15 22.6554 83.7813 30.2633 83.7813C39.1572 83.7813 42.5044 77.0813 42.5044 68.1V63.275Z" fill="#1877F2"/>
<path d="M319.297 67.9188V64.7063C319.297 46.3375 329.351 33.0688 349.843 33.0688C370.335 33.0688 380.394 46.3375 380.394 64.7063V67.9188C380.394 86.2813 370.341 99.5563 349.849 99.5563C329.357 99.5563 319.297 86.2813 319.297 67.9188ZM361.831 63.3625C361.831 54.9188 358.478 48.2188 349.813 48.2188C341.147 48.2188 337.824 54.9188 337.824 63.3625V69.2625C337.824 77.7063 341.177 84.4063 349.813 84.4063C358.448 84.4063 361.831 77.7063 361.831 69.2625V63.3625Z" fill="#1877F2"/>
<path d="M386.566 67.9188V64.7063C386.566 46.3375 396.62 33.0688 417.112 33.0688C437.604 33.0688 447.657 46.3375 447.657 64.7063V67.9188C447.657 86.2813 437.604 99.5563 417.112 99.5563C396.62 99.5563 386.566 86.2813 386.566 67.9188ZM429.1 63.3625C429.1 54.9188 425.747 48.2188 417.112 48.2188C408.476 48.2188 405.129 54.9188 405.129 63.3625V69.2625C405.129 77.7063 408.476 84.4063 417.112 84.4063C425.747 84.4063 429.1 77.7063 429.1 69.2625V63.3625Z" fill="#1877F2"/>
<path d="M473.173 64.8375L491.472 34.4125H511.189L491.989 65.9125L511.964 98.2125H492.247L473.173 66.9625V98.2125H454.61V2.375L473.173 0.625V64.8375Z" fill="#1877F2"/>
<path d="M158.148 99.365C154.928 99.365 151.813 99.05 148.803 98.42C145.793 97.79 143.098 97.09 140.718 96.32C138.338 95.55 136.448 94.85 135.048 94.22C133.648 93.59 132.948 93.275 132.948 93.275L136.938 80.465C136.938 80.465 137.638 80.745 139.038 81.305C140.508 81.865 142.398 82.53 144.708 83.3C147.018 84.07 149.433 84.735 151.953 85.295C154.543 85.855 156.923 86.135 159.093 86.135C160.283 86.135 161.228 86.03 161.928 85.82C162.698 85.61 163.293 85.365 163.713 85.085C164.273 84.665 164.693 84.07 164.973 83.3C165.323 82.53 165.498 81.69 165.498 80.78C165.498 79.03 164.938 77.7 163.818 76.79C162.698 75.81 161.193 75.005 159.303 74.375C157.483 73.745 155.418 73.115 153.108 72.485C150.868 71.785 148.593 71.05 146.283 70.28C143.973 69.44 141.838 68.355 139.878 67.025C137.988 65.625 136.448 63.84 135.258 61.67C134.068 59.5 133.473 56.7 133.473 53.27C133.473 47.74 135.328 43.295 139.038 39.935C142.748 36.575 148.698 34.895 156.888 34.895C159.968 34.895 162.943 35.105 165.813 35.525C168.683 35.945 171.238 36.435 173.478 36.995C175.718 37.555 177.468 38.045 178.728 38.465L176.313 51.065C176.313 51.065 175.648 50.925 174.318 50.645C172.988 50.295 171.273 49.91 169.173 49.49C167.073 49.07 164.833 48.72 162.453 48.44C160.073 48.09 157.833 47.915 155.733 47.915C153.983 47.915 152.758 48.02 152.058 48.23C151.358 48.44 150.833 48.685 150.483 48.965C150.203 49.175 149.923 49.525 149.643 50.015C149.433 50.435 149.328 51.03 149.328 51.8C149.328 53.34 149.888 54.6 151.008 55.58C152.128 56.49 153.598 57.26 155.418 57.89C157.308 58.52 159.338 59.15 161.508 59.78C163.748 60.41 166.023 61.11 168.333 61.88C170.713 62.58 172.883 63.595 174.843 64.925C176.803 66.185 178.378 67.935 179.568 70.175C180.758 72.345 181.353 75.215 181.353 78.785C181.353 84.945 179.358 89.915 175.368 93.695C171.378 97.475 165.638 99.365 158.148 99.365Z" fill="#1877F2"/>
</svg>
